<svg xmlns="http://www.w3.org/2000/svg" width="20" height="15.556" viewBox="0 0 20 15.556"><defs><style>.a{fill:#5063ff;}</style></defs><path class="a" d="M7.222,39.778A2.222,2.222,0,1,0,5,37.556,2.222,2.222,0,0,0,7.222,39.778Zm8.889-.833H12.778a.833.833,0,1,0,0,1.667h3.333a.833.833,0,1,0,0-1.667ZM8.333,40.889H6.111a2.777,2.777,0,0,0-2.778,2.778.557.557,0,0,0,.556.556h6.667a.556.556,0,0,0,.556-.556A2.777,2.777,0,0,0,8.333,40.889Zm7.778-4.722H12.778a.833.833,0,0,0,0,1.667h3.333a.833.833,0,0,0,0-1.667ZM17.778,32H2.222A2.222,2.222,0,0,0,0,34.222V45.333a2.222,2.222,0,0,0,2.222,2.222H17.778A2.222,2.222,0,0,0,20,45.333V34.222A2.223,2.223,0,0,0,17.778,32Zm.556,13.333a.556.556,0,0,1-.556.556H2.222a.556.556,0,0,1-.556-.556V34.222a.556.556,0,0,1,.556-.556H17.778a.556.556,0,0,1,.556.556Z" transform="translate(0 -32)"/></svg>