<svg xmlns="http://www.w3.org/2000/svg" width="18.286" height="16" viewBox="0 0 18.286 16"><defs><style>.a{fill:#fff;}</style></defs><path class="a" d="M18.286,35.429v9.143A3.429,3.429,0,0,1,14.857,48H12.286a.857.857,0,0,1,0-1.714h2.571a1.719,1.719,0,0,0,1.714-1.714V35.429a1.719,1.719,0,0,0-1.714-1.714H12.286a.857.857,0,0,1,0-1.714h2.571A3.429,3.429,0,0,1,18.286,35.429Zm-5.946,3.986L7.768,34.557a.857.857,0,0,0-1.25,1.171l3.211,3.414H.857a.857.857,0,0,0,0,1.714H9.729L6.517,44.27a.856.856,0,0,0,.037,1.211.867.867,0,0,0,.589.233.853.853,0,0,0,.624-.27l4.571-4.857A.853.853,0,0,0,12.339,39.414Z" transform="translate(0 -32)"/></svg>