<svg xmlns="http://www.w3.org/2000/svg" width="40" height="40" viewBox="0 0 40 40"><defs><style>.a,.b{fill:#5063ff;}.a{opacity:0.12;}</style></defs><g transform="translate(-1316 -132)"><rect class="a" width="40" height="40" rx="20" transform="translate(1316 132)"/><path class="b" d="M14.4,4.5a2.25,2.25,0,1,0-2.25-2.25A2.25,2.25,0,0,0,14.4,4.5Zm3.15,6.188H16.313V9.45a.45.45,0,0,0-.45-.45H14.737a.45.45,0,0,0-.45.45v1.238H13.05a.45.45,0,0,0-.45.45v1.125a.45.45,0,0,0,.45.45h1.238V13.95a.45.45,0,0,0,.45.45h1.125a.45.45,0,0,0,.45-.45V12.712H17.55a.45.45,0,0,0,.45-.45V11.137A.451.451,0,0,0,17.55,10.688ZM13.784,5.4a2.345,2.345,0,0,0-1.009.232,4.12,4.12,0,0,1,.044.443,3.792,3.792,0,0,1-.933,2.475h1.792a1.227,1.227,0,0,1,.947-.45h1.35a1.229,1.229,0,0,1,.946.45H17.5a.512.512,0,0,0,.5-.526A2.554,2.554,0,0,0,15.522,5.4ZM9,9A2.925,2.925,0,1,0,6.1,6.075,2.9,2.9,0,0,0,9,9ZM9,4.5A1.575,1.575,0,1,1,7.422,6.075,1.576,1.576,0,0,1,9,4.5Zm4.39,9.112h-.45A1.236,1.236,0,0,1,11.9,13.05H5.009a2.618,2.618,0,0,1,2.563-1.8H10.4a2.839,2.839,0,0,1,1.3.311v-.536a1.279,1.279,0,0,1,.306-.806A4.18,4.18,0,0,0,10.4,9.9H7.6a3.879,3.879,0,0,0-4,3.749.775.775,0,0,0,.8.751h9.042a1.21,1.21,0,0,1-.053-.337ZM5.172,6.075a3.747,3.747,0,0,1,.045-.447,2.037,2.037,0,0,0-1-.228H2.477A2.554,2.554,0,0,0,0,8.024a.512.512,0,0,0,.5.526H6.106A3.788,3.788,0,0,1,5.172,6.075ZM3.6,4.5A2.25,2.25,0,1,0,1.35,2.25,2.25,2.25,0,0,0,3.6,4.5Z" transform="translate(1327 144.8)"/></g></svg>