<svg xmlns="http://www.w3.org/2000/svg" width="20" height="17.5" viewBox="0 0 20 17.5"><defs><style>.a{fill:#212945;}</style></defs><path class="a" d="M17.5,34.5H14.688l-.33-.879A2.5,2.5,0,0,0,12.016,32H7.984a2.5,2.5,0,0,0-2.34,1.619l-.332.881H2.5A2.5,2.5,0,0,0,0,37V47a2.5,2.5,0,0,0,2.5,2.5h15A2.5,2.5,0,0,0,20,47V37A2.5,2.5,0,0,0,17.5,34.5ZM18.75,47a1.254,1.254,0,0,1-1.25,1.25H2.5A1.254,1.254,0,0,1,1.25,47V37A1.254,1.254,0,0,1,2.5,35.75H6.182l.629-1.687a1.215,1.215,0,0,1,1.17-.813h4.035a1.25,1.25,0,0,1,1.171.813l.634,1.687H17.5A1.254,1.254,0,0,1,18.75,37ZM10,37.313A4.688,4.688,0,1,0,14.688,42,4.691,4.691,0,0,0,10,37.313Zm0,8.125A3.438,3.438,0,1,1,13.438,42,3.443,3.443,0,0,1,10,45.438Z" transform="translate(0 -32)"/></svg>