<svg xmlns="http://www.w3.org/2000/svg" width="20" height="20" viewBox="0 0 20 20"><defs><style>.a{fill:#212945;}</style></defs><path class="a" d="M28.1,27.65a.666.666,0,1,0-1.13.706l1.743,2.79a.107.107,0,0,1-.029.158,5.576,5.576,0,0,1-5.35.007.111.111,0,0,1-.038-.161l1.743-2.8a.667.667,0,0,0-1.132-.706L22.161,30.44a1.415,1.415,0,0,0-.188,1.1,1.5,1.5,0,0,0,.687.926,6.839,6.839,0,0,0,6.679,0,1.482,1.482,0,0,0,.682-.905,1.428,1.428,0,0,0-.178-1.111ZM24.129,26.3c.025-.367-.242-.617-.654-.642l-3.288.112c-.083-.023-.119-.069-.122-.1a5.485,5.485,0,0,1,2.667-4.634.113.113,0,0,1,.162.047l1.551,2.907a.667.667,0,1,0,1.176-.628l-1.55-2.939a1.408,1.408,0,0,0-.852-.711,1.679,1.679,0,0,0-1.148.165,6.817,6.817,0,0,0-3.338,5.784,1.555,1.555,0,0,0,.443,1.045,1.427,1.427,0,0,0,1.011.4l3.335-.115A.616.616,0,0,0,24.129,26.3Zm8.225-3.971a6.792,6.792,0,0,0-2.428-2.456,1.5,1.5,0,0,0-1.126-.135,1.431,1.431,0,0,0-.871.708L26.38,23.359a.666.666,0,1,0,1.177.625L29.1,21.079a.114.114,0,0,1,.151-.055,5.485,5.485,0,0,1,2.68,4.628c0,.029.025.122-.122.116l-3.294-.111a.724.724,0,0,0-.688.645.667.667,0,0,0,.644.689l3.352.112a1.405,1.405,0,0,0,.981-.385,1.507,1.507,0,0,0,.461-1.061A6.718,6.718,0,0,0,32.354,22.329ZM26,16A10,10,0,1,0,36,26,10,10,0,0,0,26,16Zm0,18.667A8.667,8.667,0,1,1,34.667,26,8.676,8.676,0,0,1,26,34.667ZM25,26a1,1,0,1,0,1-1A1,1,0,0,0,25,26Z" transform="translate(-16 -16)"/></svg>