<svg xmlns="http://www.w3.org/2000/svg" width="80" height="80" viewBox="0 0 80 80"><defs><style>.a,.b{fill:#5063ff;}.b{opacity:0.4;}</style></defs><path class="a" d="M169.75,158.5H158.5v11.25a3.735,3.735,0,0,1-3.609,3.75A3.793,3.793,0,0,1,151,169.75V158.5H139.75a3.75,3.75,0,0,1,0-7.5H151V139.75a3.75,3.75,0,0,1,7.5,0V151h11.25a3.75,3.75,0,0,1,0,7.5Z" transform="translate(-114.75 -114.75)"/><path class="b" d="M40,0A40,40,0,1,0,80,40,40,40,0,0,0,40,0ZM55,43.75H43.75V55a3.735,3.735,0,0,1-3.609,3.75A3.793,3.793,0,0,1,36.25,55V43.75H25a3.75,3.75,0,0,1,0-7.5H36.25V25a3.75,3.75,0,0,1,7.5,0V36.25H55a3.75,3.75,0,0,1,0,7.5Z"/></svg>