<svg xmlns="http://www.w3.org/2000/svg" width="18" height="15.75" viewBox="0 0 18 15.75"><defs><style>.a{fill:#26264e;}</style></defs><path class="a" d="M17.849,32.939A1.624,1.624,0,0,0,16.358,32H1.64a1.624,1.624,0,0,0-1.489.939A1.575,1.575,0,0,0,.374,34.63l5.815,7.14v2.38a1.344,1.344,0,0,0,.581,1.106L9.664,47.49a1.292,1.292,0,0,0,.792.26A1.353,1.353,0,0,0,11.812,46.4V41.77l5.818-7.147A1.565,1.565,0,0,0,17.849,32.939Zm-7.47,7.888a1.126,1.126,0,0,0-.253.711v4.175l-2.25-1.736V41.569a1.126,1.126,0,0,0-.253-.711L1.785,33.689H16.213Z" transform="translate(0 -32)"/></svg>