<svg xmlns="http://www.w3.org/2000/svg" width="40" height="40" viewBox="0 0 40 40"><defs><style>.a,.b{fill:#26264e;}.a{opacity:0.04;}</style></defs><g transform="translate(-1316 -132)"><rect class="a" width="40" height="40" rx="20" transform="translate(1316 132)"/><path class="b" d="M17.143,32H2.857A2.857,2.857,0,0,0,0,34.857V49.143A2.857,2.857,0,0,0,2.857,52H17.143A2.857,2.857,0,0,0,20,49.143V34.857A2.859,2.859,0,0,0,17.143,32Zm.714,17.143a.715.715,0,0,1-.714.714H2.857a.715.715,0,0,1-.714-.714V34.857a.715.715,0,0,1,.714-.714H17.143a.715.715,0,0,1,.714.714Zm-6.071-3.571h-.714V41.643A1.072,1.072,0,0,0,10,40.571H8.571a1.071,1.071,0,0,0,0,2.143h.357v2.857H8.214a1.071,1.071,0,0,0,0,2.143h3.571a1.071,1.071,0,0,0,0-2.143ZM10,39.143a1.429,1.429,0,1,0-1.429-1.429A1.429,1.429,0,0,0,10,39.143Z" transform="translate(1326 110)"/></g></svg>