<svg xmlns="http://www.w3.org/2000/svg" width="40" height="40" viewBox="0 0 40 40"><defs><style>.a,.b{fill:#5063ff;}.a{opacity:0.12;}</style></defs><g transform="translate(-1531 -129)"><rect class="a" width="40" height="40" rx="20" transform="translate(1531 129)"/><path class="b" d="M6.188,11.25H7.875v1.688a.564.564,0,0,0,.563.563H9.563a.563.563,0,0,0,.563-.562V11.25h1.688a.563.563,0,0,0,.563-.562V9.563A.564.564,0,0,0,11.813,9H10.125V7.313a.564.564,0,0,0-.562-.562H8.438a.564.564,0,0,0-.562.563V9H6.188a.564.564,0,0,0-.562.563v1.125A.564.564,0,0,0,6.188,11.25ZM15.75,3.375H13.5V2.25A2.25,2.25,0,0,0,11.25,0H6.75A2.251,2.251,0,0,0,4.5,2.25V3.375H2.25A2.251,2.251,0,0,0,0,5.625v9a2.25,2.25,0,0,0,2.25,2.25h13.5A2.25,2.25,0,0,0,18,14.625v-9A2.252,2.252,0,0,0,15.75,3.375ZM6.188,2.25a.562.562,0,0,1,.563-.562h4.5a.562.562,0,0,1,.563.563V3.375H6.188ZM2.813,15.188H2.25a.564.564,0,0,1-.562-.562v-9a.564.564,0,0,1,.563-.562h.563Zm10.688,0h-9V5.063h9Zm2.813-.562a.564.564,0,0,1-.562.563h-.562V5.063h.563a.564.564,0,0,1,.563.563Z" transform="translate(1542 140.325)"/></g></svg>