<svg xmlns="http://www.w3.org/2000/svg" width="40" height="40" viewBox="0 0 40 40"><defs><style>.a{fill:#3949cc;}.b{fill:#fff;}</style></defs><g transform="translate(-144 -8)"><rect class="a" width="40" height="40" rx="8" transform="translate(144 8)"/><path class="b" d="M5.344,35.1a1.69,1.69,0,1,0,1.69,1.69A1.69,1.69,0,0,0,5.344,35.1ZM15.737,32H2.213A2.248,2.248,0,0,0-.009,34.254v11.27a2.247,2.247,0,0,0,2.222,2.254H15.737a2.254,2.254,0,0,0,2.254-2.254V34.254A2.234,2.234,0,0,0,15.737,32ZM16.3,45.288l-4.818-6.547a.567.567,0,0,0-.5-.261.664.664,0,0,0-.536.26L6.689,43.815,5.383,42.191a.684.684,0,0,0-1.041,0l-2.66,3.3h0V34.254a.564.564,0,0,1,.563-.563H15.769a.564.564,0,0,1,.563.563V45.288Z" transform="translate(155.009 -11.889)"/></g></svg>