<svg xmlns="http://www.w3.org/2000/svg" width="40" height="40" viewBox="0 0 40 40"><defs><style>.a,.b{fill:#26264e;}.a{opacity:0.04;}</style></defs><g transform="translate(-1316 -132)"><rect class="a" width="40" height="40" rx="20" transform="translate(1316 132)"/><path class="b" d="M5.939,35.444a1.878,1.878,0,1,0,1.878,1.878A1.878,1.878,0,0,0,5.939,35.444ZM17.487,32H2.46a2.5,2.5,0,0,0-2.47,2.5V47.026a2.5,2.5,0,0,0,2.469,2.5H17.486a2.5,2.5,0,0,0,2.5-2.5V34.5A2.483,2.483,0,0,0,17.487,32Zm.626,14.764L12.76,39.49a.63.63,0,0,0-.56-.29.737.737,0,0,0-.6.289L7.434,45.128l-1.451-1.8a.761.761,0,0,0-1.156,0L1.871,46.995h0l0-12.49a.627.627,0,0,1,.626-.626H17.522a.627.627,0,0,1,.626.626v12.26Z" transform="translate(1326.009 111.235)"/></g></svg>