<svg xmlns="http://www.w3.org/2000/svg" width="40" height="40" viewBox="0 0 40 40"><defs><style>.a,.b{fill:#5063ff;}.a{opacity:0.12;}</style></defs><g transform="translate(-1531 -129)"><rect class="a" width="40" height="40" rx="20" transform="translate(1531 129)"/><path class="b" d="M7.875,15.188A1.125,1.125,0,1,0,6.75,14.063,1.125,1.125,0,0,0,7.875,15.188Zm0-3.375a.844.844,0,0,0,.844-.844V8.719a.844.844,0,0,0-1.687,0v2.25A.844.844,0,0,0,7.875,11.813ZM13.5,2.25H12.094V.844A.838.838,0,0,0,11.282,0a.893.893,0,0,0-.875.844V2.25H5.344V.844a.844.844,0,0,0-1.687,0V2.25H2.25A2.25,2.25,0,0,0,0,4.5V15.75A2.25,2.25,0,0,0,2.25,18H13.5a2.25,2.25,0,0,0,2.25-2.25V4.5A2.251,2.251,0,0,0,13.5,2.25Zm.563,13.5a.563.563,0,0,1-.562.563H2.25a.563.563,0,0,1-.562-.562v-9H14.063Z" transform="translate(1543.125 140)"/></g></svg>