<svg xmlns="http://www.w3.org/2000/svg" width="48" height="48" viewBox="0 0 48 48"><defs><style>.a,.b,.c{fill:#ffbe26;}.a{opacity:0.16;}.c{opacity:0.4;}</style></defs><g transform="translate(-913 -20)"><circle class="a" cx="24" cy="24" r="24" transform="translate(913 20)"/><g transform="translate(925 31.556)"><path class="b" d="M21.778,5.444a2.334,2.334,0,0,0-2.333-2.333H17.111v-1.6a1.556,1.556,0,0,0-3.111,0v1.6H7.778v-1.6a1.556,1.556,0,0,0-3.111,0v1.6H2.333A2.333,2.333,0,0,0,0,5.444V9.333H21.778ZM21,10.889a7,7,0,1,0,7,7A7,7,0,0,0,21,10.889Zm2.333,7.778H21a.777.777,0,0,1-.778-.778V14.817a.778.778,0,0,1,1.556,0v2.294h1.556a.778.778,0,1,1,0,1.556Z"/><path class="c" d="M21.778,192H21c.263,0,.521.016.778.039Zm-9.333,8.556A8.556,8.556,0,0,1,21,192H0v13.222a2.334,2.334,0,0,0,2.333,2.333H16.09A8.538,8.538,0,0,1,12.444,200.556Z" transform="translate(0 -182.667)"/></g></g></svg>