<svg xmlns="http://www.w3.org/2000/svg" width="48" height="48" viewBox="0 0 48 48"><defs><style>.a{fill:#26264e;}.b{fill:#fff;}</style></defs><g transform="translate(-233 -16)"><rect class="a" width="48" height="48" rx="8" transform="translate(233 16)"/><path class="b" d="M22,4.01H18.667v-2a2,2,0,0,0-2-2H7.333a2,2,0,0,0-2,2v2H2a2,2,0,0,0-2,2v14a1.333,1.333,0,0,0,1.333,1.333H22.667A1.334,1.334,0,0,0,24,20.01v-14A2,2,0,0,0,22,4.01Zm-16.667,14a.667.667,0,0,1-.667.667H3.333a.667.667,0,0,1-.667-.667V16.676a.667.667,0,0,1,.667-.667H4.667a.667.667,0,0,1,.667.667Zm0-4a.667.667,0,0,1-.667.667H3.333a.667.667,0,0,1-.667-.667V12.676a.667.667,0,0,1,.667-.667H4.667a.667.667,0,0,1,.667.667Zm5.333,4a.667.667,0,0,1-.667.667H8.667A.667.667,0,0,1,8,18.01V16.676a.667.667,0,0,1,.667-.667H10a.667.667,0,0,1,.667.667Zm0-4a.667.667,0,0,1-.667.667H8.667A.667.667,0,0,1,8,14.01V12.676a.667.667,0,0,1,.667-.667H10a.667.667,0,0,1,.667.667ZM12.9,9.343H11.1a.433.433,0,0,1-.433-.433V7.343H9.1a.433.433,0,0,1-.433-.433V5.11A.433.433,0,0,1,9.1,4.676h1.567V3.11a.433.433,0,0,1,.433-.433h1.8a.435.435,0,0,1,.433.433V4.677H14.9a.434.434,0,0,1,.433.433v1.8a.433.433,0,0,1-.433.433H13.333V8.91A.433.433,0,0,1,12.9,9.343ZM16,18.01a.667.667,0,0,1-.667.667H14a.667.667,0,0,1-.667-.667V16.676A.667.667,0,0,1,14,16.01h1.333a.667.667,0,0,1,.667.667Zm0-4a.667.667,0,0,1-.667.667H14a.667.667,0,0,1-.667-.667V12.676A.667.667,0,0,1,14,12.01h1.333a.667.667,0,0,1,.667.667Zm5.333,4a.667.667,0,0,1-.667.667H19.333a.667.667,0,0,1-.667-.667V16.676a.667.667,0,0,1,.667-.667h1.333a.667.667,0,0,1,.667.667Zm0-4a.667.667,0,0,1-.667.667H19.333a.667.667,0,0,1-.667-.667V12.676a.667.667,0,0,1,.667-.667h1.333a.667.667,0,0,1,.667.667Z" transform="translate(245 29.323)"/></g></svg>