<svg xmlns="http://www.w3.org/2000/svg" width="48" height="48" viewBox="0 0 48 48"><defs><style>.a,.b,.c{fill:#f1f2f5;}.a{opacity:0.16;}.b{opacity:0.4;}</style></defs><g transform="translate(-1103 -20)"><circle class="a" cx="24" cy="24" r="24" transform="translate(1103 20)"/><g transform="translate(1113 33)"><path class="b" d="M455.875,322.625h-2.1v-2.1a.525.525,0,0,0-.525-.525h-2.1a.525.525,0,0,0-.525.525v2.1h-2.1a.525.525,0,0,0-.525.525v2.1a.525.525,0,0,0,.525.525h2.1v2.1a.525.525,0,0,0,.525.525h2.1a.525.525,0,0,0,.525-.525v-2.1h2.1a.525.525,0,0,0,.525-.525v-2.1A.527.527,0,0,0,455.875,322.625Z" transform="translate(-428.4 -306)"/><path class="c" d="M5.6,7A3.5,3.5,0,1,0,2.1,3.5,3.5,3.5,0,0,0,5.6,7ZM14,14A4.55,4.55,0,1,0,9.485,9.45,4.517,4.517,0,0,0,14,14Zm8.4-7a3.5,3.5,0,1,0-3.5-3.5A3.5,3.5,0,0,0,22.4,7ZM20.825,21.175h-.7A1.927,1.927,0,0,1,18.2,19.25v-2.1a1.989,1.989,0,0,1,.476-1.254,6.5,6.5,0,0,0-2.493-.5H11.817A6.034,6.034,0,0,0,5.6,21.232,1.205,1.205,0,0,0,6.842,22.4H20.908a1.883,1.883,0,0,1-.083-.525ZM24.146,8.4H21.44a3.648,3.648,0,0,0-1.569.361,5.994,5.994,0,0,1,.07.689A5.9,5.9,0,0,1,18.49,13.3h2.787a1.909,1.909,0,0,1,1.473-.7h2.1a1.912,1.912,0,0,1,1.472.7h.907A.8.8,0,0,0,28,12.482,3.973,3.973,0,0,0,24.146,8.4ZM8.046,9.45a5.828,5.828,0,0,1,.07-.7A3.168,3.168,0,0,0,6.558,8.4h-2.7A3.974,3.974,0,0,0,0,12.482a.8.8,0,0,0,.771.818H9.5A5.893,5.893,0,0,1,8.046,9.45Z"/></g></g></svg>