<svg xmlns="http://www.w3.org/2000/svg" width="18" height="16" viewBox="0 0 18 16"><defs><style>.a{fill:#5063ff;}</style></defs><path class="a" d="M16.5,3.01H14V1.51A1.5,1.5,0,0,0,12.5.01h-7A1.5,1.5,0,0,0,4,1.51v1.5H1.5A1.5,1.5,0,0,0,0,4.51v10.5a1,1,0,0,0,1,1H17a1,1,0,0,0,1-1V4.51A1.5,1.5,0,0,0,16.5,3.01ZM4,13.51a.5.5,0,0,1-.5.5h-1a.5.5,0,0,1-.5-.5v-1a.5.5,0,0,1,.5-.5h1a.5.5,0,0,1,.5.5Zm0-3a.5.5,0,0,1-.5.5h-1a.5.5,0,0,1-.5-.5v-1a.5.5,0,0,1,.5-.5h1a.5.5,0,0,1,.5.5Zm4,3a.5.5,0,0,1-.5.5h-1a.5.5,0,0,1-.5-.5v-1a.5.5,0,0,1,.5-.5h1a.5.5,0,0,1,.5.5Zm0-3a.5.5,0,0,1-.5.5h-1a.5.5,0,0,1-.5-.5v-1a.5.5,0,0,1,.5-.5h1a.5.5,0,0,1,.5.5Zm1.675-3.5H8.325A.325.325,0,0,1,8,6.685V5.51H6.825A.325.325,0,0,1,6.5,5.185V3.835a.325.325,0,0,1,.325-.325H8V2.335a.325.325,0,0,1,.325-.325h1.35A.326.326,0,0,1,10,2.335V3.51h1.175a.326.326,0,0,1,.325.324v1.35a.325.325,0,0,1-.325.325H10V6.685A.325.325,0,0,1,9.675,7.01ZM12,13.51a.5.5,0,0,1-.5.5h-1a.5.5,0,0,1-.5-.5v-1a.5.5,0,0,1,.5-.5h1a.5.5,0,0,1,.5.5Zm0-3a.5.5,0,0,1-.5.5h-1a.5.5,0,0,1-.5-.5v-1a.5.5,0,0,1,.5-.5h1a.5.5,0,0,1,.5.5Zm4,3a.5.5,0,0,1-.5.5h-1a.5.5,0,0,1-.5-.5v-1a.5.5,0,0,1,.5-.5h1a.5.5,0,0,1,.5.5Zm0-3a.5.5,0,0,1-.5.5h-1a.5.5,0,0,1-.5-.5v-1a.5.5,0,0,1,.5-.5h1a.5.5,0,0,1,.5.5Z" transform="translate(0 -0.01)"/></svg>