<svg xmlns="http://www.w3.org/2000/svg" width="144" height="144" viewBox="0 0 144 144"><defs><style>.a{fill:#f1f2f5;}.b,.c{fill:#bdbdbd;}.c{opacity:0.4;}</style></defs><g transform="translate(-1452 -184)"><rect class="a" width="144" height="144" rx="8" transform="translate(1452 184)"/><g transform="translate(1493 220)"><path class="b" d="M45,304.872v7.338a8.973,8.973,0,0,1,6.75,8.667v4.5a2.22,2.22,0,0,1-.65,1.582l-1.459,1.454a1.114,1.114,0,0,1-1.582,0l-1.582-1.6a1.114,1.114,0,0,1,0-1.582l.791-.809v-3.3a4.683,4.683,0,0,0-3.743-4.694,4.527,4.527,0,0,0-5.257,4.447v3.551l.809.809a1.114,1.114,0,0,1,0,1.582l-1.6,1.6a1.114,1.114,0,0,1-1.582,0l-1.441-1.447a2.245,2.245,0,0,1-.677-1.582l.009-4.113a9.346,9.346,0,0,1,6.75-9.07v-8.1c-.626-.056-1.259-.1-1.906-.1H24.37c-.621,0-1.231.047-1.841.093v9.276a7.875,7.875,0,1,1-4.5,0v-8.511A24.37,24.37,0,0,0,0,328.37a4.874,4.874,0,0,0,4.874,4.88H58.12A4.873,4.873,0,0,0,63,328.37,24.366,24.366,0,0,0,45,304.872Zm-28.083,16a3.375,3.375,0,1,0,3.375-3.375A3.369,3.369,0,0,0,16.917,320.875Z" transform="translate(0 -261.25)"/><path class="c" d="M120.883,50.963V43.622a24.286,24.286,0,0,0-4.465-.775v8.094a9.346,9.346,0,0,0-6.75,9.07l-.007,4.113a2.245,2.245,0,0,0,.677,1.582l1.441,1.46a1.114,1.114,0,0,0,1.582,0l1.6-1.6a1.114,1.114,0,0,0,0-1.582l-.809-.809V59.625a4.526,4.526,0,0,1,5.257-4.447,4.681,4.681,0,0,1,3.743,4.694v3.3l-.793.807a1.114,1.114,0,0,0,0,1.582l1.582,1.6a1.114,1.114,0,0,0,1.582,0l1.46-1.46a2.184,2.184,0,0,0,.65-1.582v-4.5A8.972,8.972,0,0,0,120.883,50.963ZM98.425,52.116V42.848a26.2,26.2,0,0,0-4.5.77v8.506a7.86,7.86,0,1,0,4.5-.009ZM96.161,63a3.375,3.375,0,1,1,3.383-3.375A3.369,3.369,0,0,1,96.161,63Zm29.222-45a18,18,0,1,0-18,18A18,18,0,0,0,125.383,18Z" transform="translate(-75.883)"/></g></g></svg>