<svg xmlns="http://www.w3.org/2000/svg" width="144" height="144" viewBox="0 0 144 144"><defs><style>.a{fill:#f1f2f5;}.b,.c{fill:#bdbdbd;}.c{opacity:0.4;}</style></defs><g transform="translate(-1452 -184)"><rect class="a" width="144" height="144" rx="8" transform="translate(1452 184)"/><g transform="translate(1492.498 220)"><path class="b" d="M38.632,304H24.372A24.375,24.375,0,0,0,0,328.372a4.876,4.876,0,0,0,4.874,4.876H58.132A4.865,4.865,0,0,0,63,328.372,24.374,24.374,0,0,0,38.632,304Z" transform="translate(0 -261.248)"/><path class="c" d="M132,18A18,18,0,1,1,114,0,18,18,0,0,1,132,18Z" transform="translate(-82.499)"/></g></g></svg>