<svg xmlns="http://www.w3.org/2000/svg" width="194" height="194" viewBox="0 0 194 194"><defs><style>.a{fill:#f1f2f5;}.b,.c{fill:#bdbdbd;}.c{opacity:0.4;}</style></defs><g transform="translate(-1212 -209)"><rect class="a" width="194" height="194" rx="8" transform="translate(1212 209)"/><g transform="translate(1266.56 257.5)"><path class="b" d="M52.046,304H32.834A32.838,32.838,0,0,0,0,336.834,6.569,6.569,0,0,0,6.567,343.4h71.75a6.555,6.555,0,0,0,6.563-6.569A32.837,32.837,0,0,0,52.046,304Z" transform="translate(0 -246.403)"/><path class="c" d="M144.5,24.251A24.251,24.251,0,1,1,120.251,0,24.251,24.251,0,0,1,144.5,24.251Z" transform="translate(-77.811)"/></g></g></svg>