<svg xmlns="http://www.w3.org/2000/svg" width="16" height="13" viewBox="0 0 16 13"><defs><style>.a{fill:#424242;}</style></defs><path class="a" d="M6.747,34.753h8.5a.75.75,0,0,0,0-1.5h-8.5a.75.75,0,0,0,0,1.5ZM1.5,43a1,1,0,1,0,1,1A1,1,0,0,0,1.5,43Zm13.748-4.75h-8.5a.75.75,0,1,0,0,1.5h8.5a.75.75,0,1,0,0-1.5Zm0,5h-9.5a.75.75,0,1,0,0,1.5h9.5a.75.75,0,1,0,0-1.5Zm-11.556-11L1.969,34.163l-.691-.691A.75.75,0,1,0,.217,34.532l1.25,1.25a.729.729,0,0,0,.5.221h.02a.75.75,0,0,0,.538-.248l2.25-2.5a.751.751,0,0,0-.056-1.06A.717.717,0,0,0,3.691,32.252Zm0,5L1.969,39.163l-.691-.691A.75.75,0,0,0,.217,39.532l1.25,1.25a.729.729,0,0,0,.5.221h.02a.75.75,0,0,0,.538-.248l2.25-2.5a.751.751,0,0,0-.056-1.06A.718.718,0,0,0,3.691,37.25Z" transform="translate(0.003 -32.004)"/></svg>