<svg xmlns="http://www.w3.org/2000/svg" width="15.778" height="18" viewBox="0 0 15.778 18"><defs><style>.a{fill:#141432;}</style></defs><path class="a" d="M13.524,6.762H12.4V4.476a4.508,4.508,0,0,0-9.016,0V6.762H2.254A2.255,2.255,0,0,0,0,9.016v6.73A2.254,2.254,0,0,0,2.254,18h11.27a2.254,2.254,0,0,0,2.254-2.254V9.016A2.256,2.256,0,0,0,13.524,6.762ZM5.071,4.508a2.817,2.817,0,0,1,5.635,0V6.762H5.071Zm9.016,11.27a.564.564,0,0,1-.563.563H2.254a.564.564,0,0,1-.563-.563V9.016a.564.564,0,0,1,.563-.563h11.27a.564.564,0,0,1,.563.563Zm-6.2-5.071a.845.845,0,0,0-.845.845v1.69a.846.846,0,0,0,1.69,0v-1.69A.845.845,0,0,0,7.889,10.706Z"/></svg>