<svg xmlns="http://www.w3.org/2000/svg" width="40" height="40" viewBox="0 0 40 40"><defs><style>.a{fill:#5063ff;}.b{fill:#fff;}</style></defs><g transform="translate(-272 -37)"><rect class="a" width="40" height="40" rx="6" transform="translate(272 37)"/><path class="b" d="M22.1,12.928l-2.88-4.9A4.148,4.148,0,0,0,15.661,6H14.592a4.141,4.141,0,0,0-3.555,2.034l-2.88,4.894A1.125,1.125,0,1,0,10.1,14.07l2.03-3.453V22.875A1.117,1.117,0,0,0,13.209,24a1.189,1.189,0,0,0,1.167-1.125V16.5h1.5v6.375a1.125,1.125,0,0,0,2.25,0V10.617l2.03,3.452a1.122,1.122,0,0,0,1.538.4A1.135,1.135,0,0,0,22.1,12.928Zm-6.22,1.322h-1.5V8.264a1.666,1.666,0,0,1,.216-.014h1.069c.032,0,.145,0,.215.014Zm-.75-9.75a2.25,2.25,0,1,0-2.25-2.25A2.251,2.251,0,0,0,15.127,4.5Z" transform="translate(276.873 45)"/><rect class="b" width="4" height="7" transform="translate(290 53)"/></g></svg>