<svg xmlns="http://www.w3.org/2000/svg" width="40" height="40" viewBox="0 0 40 40"><defs><style>.a,.b{fill:#5063ff;}.a{opacity:0.12;}</style></defs><g transform="translate(-1531 -129)"><rect class="a" width="40" height="40" rx="20" transform="translate(1531 129)"/><path class="b" d="M15.75,64H2.25A2.25,2.25,0,0,0,0,66.25v9A2.25,2.25,0,0,0,2.25,77.5h13.5A2.25,2.25,0,0,0,18,75.25v-9A2.251,2.251,0,0,0,15.75,64ZM2.25,65.688h13.5a.563.563,0,0,1,.563.563v.779l-5.864,4.855a2.322,2.322,0,0,1-2.9,0L1.688,67.03v-.78A.564.564,0,0,1,2.25,65.688Zm13.5,10.125H2.25a.563.563,0,0,1-.562-.562V69.228l4.785,3.987a3.963,3.963,0,0,0,5.058,0l4.782-3.984V75.25A.564.564,0,0,1,15.75,75.813Z" transform="translate(1542.023 78.25)"/></g></svg>