<svg xmlns="http://www.w3.org/2000/svg" width="40" height="40" viewBox="0 0 40 40"><defs><style>.a,.b{fill:#5063ff;}.a{opacity:0.12;}</style></defs><g transform="translate(-1531 -129)"><rect class="a" width="40" height="40" rx="20" transform="translate(1531 129)"/><path class="b" d="M12.843,3.283,10.219.659A2.26,2.26,0,0,0,8.627,0H2.25A2.25,2.25,0,0,0,0,2.25v13.5A2.25,2.25,0,0,0,2.25,18h9a2.257,2.257,0,0,0,2.25-2.25V4.873A2.252,2.252,0,0,0,12.843,3.283ZM11.813,15.75a.563.563,0,0,1-.562.563h-9a.562.562,0,0,1-.562-.562V2.254a.563.563,0,0,1,.563-.563H7.875V4.5A1.125,1.125,0,0,0,9,5.625h2.781V15.75ZM3.375,9.844a.844.844,0,0,0,.844.844H9.281A.844.844,0,0,0,9.281,9H4.219A.846.846,0,0,0,3.375,9.844Zm5.906,2.531H4.219a.844.844,0,0,0,0,1.688H9.281a.844.844,0,0,0,0-1.688Z" transform="translate(1544 139.999)"/></g></svg>