<svg xmlns="http://www.w3.org/2000/svg" width="20.004" height="20" viewBox="0 0 20.004 20"><defs><style>.a{fill:#5063ff;}</style></defs><path class="a" d="M17.8.732a2.5,2.5,0,0,0-3.534,0L1.763,13.238a2.5,2.5,0,0,0-.671,1.219l-1.079,4.8A.639.639,0,0,0,.624,20a.635.635,0,0,0,.125-.013s3.305-.7,4.8-1.052a2.459,2.459,0,0,0,1.182-.66L19.274,5.729a2.5,2.5,0,0,0,0-3.532ZM5.4,16.949a.582.582,0,0,1-.285.161c-.71.167-1.854.418-2.839.632l.646-2.874a.625.625,0,0,1,.168-.3l9.449-9.449,2.349,2.349Z" transform="translate(-0.001)"/></svg>