<svg xmlns="http://www.w3.org/2000/svg" width="14" height="13.997" viewBox="0 0 14 13.997"><defs><style>.a{fill:#757575;}</style></defs><path class="a" d="M12.459.513a1.748,1.748,0,0,0-2.473,0L1.234,9.265a1.747,1.747,0,0,0-.47.853L.01,13.476A.447.447,0,0,0,.437,14a.445.445,0,0,0,.087-.009s2.313-.491,3.357-.736a1.721,1.721,0,0,0,.827-.462L13.49,4.009a1.747,1.747,0,0,0,0-2.472Zm-8.68,11.35a.408.408,0,0,1-.2.113c-.5.117-1.3.293-1.987.442l.452-2.012a.437.437,0,0,1,.117-.213L8.775,3.579l1.644,1.644Z" transform="translate(-0.001)"/></svg>