<svg xmlns="http://www.w3.org/2000/svg" width="16.003" height="16" viewBox="0 0 16.003 16"><defs><style>.a{fill:#757575;}</style></defs><path class="a" d="M14.242.586a2,2,0,0,0-2.827,0l-10,10a2,2,0,0,0-.537.975L.011,15.4A.511.511,0,0,0,.5,16a.508.508,0,0,0,.1-.01s2.644-.561,3.838-.842a1.967,1.967,0,0,0,.945-.528L15.42,4.583a2,2,0,0,0,0-2.825ZM4.32,13.559a.466.466,0,0,1-.228.129c-.568.134-1.483.335-2.272.506l.517-2.3a.5.5,0,0,1,.134-.244l7.559-7.559L11.91,5.97Z" transform="translate(-0.001)"/></svg>