<svg xmlns="http://www.w3.org/2000/svg" width="15.985" height="16" viewBox="0 0 15.985 16"><defs><style>.a{fill:#141432;}</style></defs><path class="a" d="M15.009,10,11.941,8.688a1.632,1.632,0,0,0-1.913.467L9.171,10.2A9.324,9.324,0,0,1,5.8,6.855L6.844,6a1.644,1.644,0,0,0,.469-1.908L5.991.98A1.641,1.641,0,0,0,4.12.036L1.268.694A1.626,1.626,0,0,0,0,2.288,13.72,13.72,0,0,0,13.706,15.994a1.573,1.573,0,0,0,1.566-1.267l.658-2.854A1.585,1.585,0,0,0,15.009,10ZM14.5,11.535l-.659,2.857a.169.169,0,0,1-.132.1A12.219,12.219,0,0,1,1.5,2.288a.13.13,0,0,1,.1-.131L4.459,1.5a.124.124,0,0,1,.03,0,.14.14,0,0,1,.126.082L5.932,4.649a.136.136,0,0,1-.039.158L4.369,6.029a.75.75,0,0,0-.2.911A10.69,10.69,0,0,0,9.03,11.8a.759.759,0,0,0,.911-.2l1.25-1.527a.129.129,0,0,1,.154-.035l3.071,1.315A.2.2,0,0,1,14.5,11.535Z" transform="translate(0 0.006)"/></svg>