<svg xmlns="http://www.w3.org/2000/svg" width="40" height="40" viewBox="0 0 40 40"><defs><style>.a,.b{fill:#5063ff;}.a{opacity:0.12;}</style></defs><g transform="translate(-1316 -132)"><rect class="a" width="40" height="40" rx="20" transform="translate(1316 132)"/><path class="b" d="M17.722,16.559l-4.711-4.711a7.094,7.094,0,0,0,1.582-4.535,7.327,7.327,0,1,0-2.777,5.729l4.711,4.711a.972.972,0,0,0,.629.247.844.844,0,0,0,.6-.247A.822.822,0,0,0,17.722,16.559ZM1.687,7.313a5.625,5.625,0,1,1,5.625,5.625A5.632,5.632,0,0,1,1.687,7.313Z" transform="translate(1327 142.977)"/></g></svg>