<svg xmlns="http://www.w3.org/2000/svg" width="12.25" height="14" viewBox="0 0 12.25 14"><defs><style>.a{fill:#757575;}</style></defs><path class="a" d="M11.813,2.188H9.56L8.63.636A1.338,1.338,0,0,0,7.509,0H4.741A1.306,1.306,0,0,0,3.62.636L2.69,2.188H.438A.436.436,0,0,0,0,2.625v.438A.436.436,0,0,0,.438,3.5H.875v8.75A1.75,1.75,0,0,0,2.625,14h7a1.75,1.75,0,0,0,1.75-1.75V3.5h.438a.435.435,0,0,0,.438-.437V2.625A.436.436,0,0,0,11.813,2.188ZM4.7,1.391a.162.162,0,0,1,.139-.079H7.41a.162.162,0,0,1,.14.079l.478.8H4.222Zm4.925,11.3h-7a.437.437,0,0,1-.437-.437V3.5h7.875v8.75A.439.439,0,0,1,9.625,12.688Zm-3.5-1.312a.437.437,0,0,0,.438-.437V5.25a.438.438,0,0,0-.875,0v5.688A.439.439,0,0,0,6.125,11.375Zm-2.187,0a.439.439,0,0,0,.438-.437V5.25a.438.438,0,0,0-.875,0v5.688A.439.439,0,0,0,3.938,11.375Zm4.375,0a.437.437,0,0,0,.438-.437V5.25a.438.438,0,0,0-.875,0v5.688A.439.439,0,0,0,8.313,11.375Z"/></svg>