<svg xmlns="http://www.w3.org/2000/svg" width="20" height="16" viewBox="0 0 20 16"><defs><style>.a{fill:#fff;}</style></defs><path class="a" d="M7,8A4,4,0,1,0,3,4,4,4,0,0,0,7,8ZM7,1.5A2.5,2.5,0,1,1,4.5,4,2.5,2.5,0,0,1,7,1.5Zm1.584,8H5.416A5.416,5.416,0,0,0,0,14.916,1.083,1.083,0,0,0,1.083,16H12.918A1.083,1.083,0,0,0,14,14.916,5.416,5.416,0,0,0,8.584,9.5Zm-7.062,5A3.92,3.92,0,0,1,5.416,11H8.584a3.94,3.94,0,0,1,3.894,3.5ZM19.25,6.25h-1.5V4.75a.75.75,0,1,0-1.5,0v1.5h-1.5a.75.75,0,0,0,0,1.5h1.5v1.5a.75.75,0,1,0,1.5,0V7.75h1.5a.75.75,0,0,0,0-1.5Z"/></svg>