<svg xmlns="http://www.w3.org/2000/svg" width="18" height="14.4" viewBox="0 0 18 14.4"><defs><style>.a,.b{fill:#5063ff;}.a{opacity:0.4;}</style></defs><path class="a" d="M453.063,321.688h-1.35v-1.35a.337.337,0,0,0-.337-.338h-1.35a.337.337,0,0,0-.337.338v1.35h-1.35a.337.337,0,0,0-.337.338v1.35a.337.337,0,0,0,.337.338h1.35v1.35a.337.337,0,0,0,.337.338h1.35a.337.337,0,0,0,.337-.338v-1.35h1.35a.337.337,0,0,0,.337-.338v-1.35A.338.338,0,0,0,453.063,321.688Z" transform="translate(-435.4 -311)"/><path class="b" d="M3.6,4.5A2.25,2.25,0,1,0,1.35,2.25,2.25,2.25,0,0,0,3.6,4.5ZM9,9A2.925,2.925,0,1,0,6.1,6.075,2.9,2.9,0,0,0,9,9Zm5.4-4.5a2.25,2.25,0,1,0-2.25-2.25A2.25,2.25,0,0,0,14.4,4.5Zm-1.013,9.113h-.45A1.239,1.239,0,0,1,11.7,12.375v-1.35a1.279,1.279,0,0,1,.306-.806A4.177,4.177,0,0,0,10.4,9.9H7.6a3.879,3.879,0,0,0-4,3.749.775.775,0,0,0,.8.751h9.042a1.21,1.21,0,0,1-.053-.337ZM15.522,5.4H13.783a2.345,2.345,0,0,0-1.009.232,3.853,3.853,0,0,1,.045.443,3.792,3.792,0,0,1-.933,2.475h1.792a1.227,1.227,0,0,1,.947-.45h1.35a1.229,1.229,0,0,1,.946.45H17.5a.512.512,0,0,0,.5-.526A2.554,2.554,0,0,0,15.522,5.4Zm-10.35.675a3.747,3.747,0,0,1,.045-.447,2.037,2.037,0,0,0-1-.228H2.477A2.554,2.554,0,0,0,0,8.024a.512.512,0,0,0,.5.526H6.106A3.788,3.788,0,0,1,5.172,6.075Z"/></svg>