<svg xmlns="http://www.w3.org/2000/svg" width="40" height="40" viewBox="0 0 40 40"><defs><style>.a{fill:#dbdbdb;}.b{fill:#424242;}</style></defs><g transform="translate(-100 -37)"><rect class="a" width="40" height="40" rx="6" transform="translate(100 37)"/><path class="b" d="M15.127,4.5a2.25,2.25,0,1,0-2.208-2.25A2.215,2.215,0,0,0,15.127,4.5Zm6.97,8.428-2.88-4.9A4.148,4.148,0,0,0,15.661,6H14.592a4.141,4.141,0,0,0-3.555,2.034l-2.88,4.894A1.125,1.125,0,1,0,10.1,14.07l2.516-4.277L9.834,18h2.292v4.875A1.117,1.117,0,0,0,13.209,24a1.189,1.189,0,0,0,1.167-1.125V18h1.5v4.875a1.125,1.125,0,0,0,2.25,0V18h2.25L17.641,9.792l2.516,4.277a1.122,1.122,0,0,0,1.538.4A1.135,1.135,0,0,0,22.1,12.928ZM13,15.75l2.128-6.384,2.128,6.384Z" transform="translate(104.998 45)"/><path class="b" d="M119.914,53.143l-2.844,8.206h6.565Z"/></g></svg>